<?xml version="1.0" encoding="utf-8"?>
<!-- Generator: Adobe Illustrator 16.0.0, SVG Export Plug-In . SVG Version: 6.00 Build 0)  -->
<!DOCTYPE svg PUBLIC "-//W3C//DTD SVG 1.1//EN" "http://www.w3.org/Graphics/SVG/1.1/DTD/svg11.dtd">
<svg version="1.1" id="Layer_1" xmlns="http://www.w3.org/2000/svg" xmlns:xlink="http://www.w3.org/1999/xlink" x="0px" y="0px"
	 width="512px" height="256px" viewBox="0 0 512 256" enable-background="new 0 0 512 256" xml:space="preserve">
<g>
	<polygon fill="#4B82C2" points="49.664,8 8,58.42 8,248 264,248 264,8 	"/>
	<g>
		<polygon fill="#FFFFFF" points="59.907,99.303 56.147,125.155 50.714,125.155 46.981,114.34 46.234,111.714 45.384,114.495 
			41.805,125.155 36.526,125.155 32.793,99.303 37.17,99.303 39.333,116.863 39.796,120.777 40.904,117.354 44.664,105.74 
			47.882,105.74 51.925,117.198 53.083,120.623 53.47,116.992 55.479,99.303 		"/>
		<path fill="#FFFFFF" d="M86.791,110.863c0,0.636-0.009,1.168-0.026,1.598c-0.017,0.429-0.043,0.832-0.077,1.21H68.533
			c0,2.644,0.739,4.673,2.215,6.09c1.476,1.416,3.605,2.124,6.386,2.124c0.755,0,1.51-0.029,2.266-0.09s1.485-0.142,2.189-0.245
			c0.704-0.103,1.377-0.219,2.021-0.347c0.644-0.13,1.24-0.271,1.79-0.426v3.683c-1.219,0.344-2.597,0.622-4.133,0.837
			c-1.536,0.214-3.128,0.322-4.776,0.322c-2.214,0-4.12-0.301-5.716-0.902c-1.596-0.6-2.906-1.472-3.927-2.613
			c-1.021-1.142-1.776-2.54-2.266-4.196c-0.489-1.657-0.733-3.533-0.733-5.628c0-1.818,0.262-3.54,0.785-5.162
			s1.287-3.047,2.292-4.274c1.004-1.228,2.236-2.202,3.695-2.923c1.459-0.721,3.116-1.081,4.97-1.081
			c1.802,0,3.399,0.283,4.789,0.85c1.391,0.567,2.562,1.369,3.515,2.407c0.953,1.039,1.673,2.301,2.163,3.785
			C86.545,107.366,86.791,109.027,86.791,110.863 M82.129,110.221c0.052-1.15-0.061-2.202-0.334-3.154
			c-0.274-0.953-0.7-1.773-1.274-2.459c-0.576-0.688-1.292-1.225-2.15-1.609c-0.859-0.387-1.854-0.58-2.987-0.58
			c-0.979,0-1.872,0.189-2.678,0.566s-1.502,0.91-2.086,1.597c-0.583,0.687-1.056,1.511-1.416,2.472
			c-0.36,0.962-0.584,2.018-0.67,3.168H82.129z"/>
		<path fill="#FFFFFF" d="M56.792,167.803c-1.013,0.258-2.06,0.442-3.142,0.554c-1.082,0.111-2.18,0.167-3.295,0.167
			c-3.245,0-5.666-0.733-7.262-2.201c-1.597-1.468-2.395-3.721-2.395-6.76V146.07h-7.235v-3.76h7.235v-7.107l4.48-1.159v8.267
			h11.613v3.76H45.178v13.132c0,1.854,0.493,3.241,1.48,4.159s2.442,1.377,4.365,1.377c0.824,0,1.726-0.063,2.704-0.193
			c0.978-0.128,2-0.329,3.064-0.604V167.803z"/>
		<path fill="#FFFFFF" d="M85.734,168.163h-4.48v-16.506c0-1.991-0.373-3.479-1.12-4.468c-0.747-0.986-1.815-1.479-3.206-1.479
			c-0.601,0-1.164,0.081-1.687,0.244c-0.524,0.163-1.069,0.446-1.635,0.85c-0.566,0.403-1.185,0.948-1.854,1.635
			c-0.67,0.688-1.442,1.545-2.317,2.575v17.149h-4.48v-36.384h4.48v10.531l-0.155,4.068c0.704-0.841,1.395-1.549,2.073-2.125
			c0.677-0.574,1.356-1.043,2.034-1.402c0.678-0.361,1.369-0.618,2.073-0.773c0.704-0.153,1.433-0.231,2.188-0.231
			c2.575,0,4.566,0.786,5.974,2.356c1.408,1.571,2.111,3.936,2.111,7.095V168.163z"/>
		<path fill="#FFFFFF" d="M102.755,146.019h-7.648v-3.708h12.18v22.119h7.699v3.733H94.258v-3.733h8.498V146.019z M104.326,131.47
			c0.498,0,0.961,0.09,1.391,0.271c0.429,0.18,0.802,0.434,1.12,0.759c0.317,0.327,0.566,0.7,0.747,1.121
			c0.18,0.42,0.271,0.88,0.271,1.377c0,0.481-0.09,0.937-0.271,1.365s-0.43,0.807-0.747,1.133c-0.318,0.326-0.691,0.579-1.12,0.76
			c-0.43,0.18-0.893,0.271-1.391,0.271c-0.499,0-0.961-0.091-1.391-0.271c-0.429-0.181-0.803-0.434-1.12-0.76
			s-0.566-0.704-0.747-1.133s-0.271-0.884-0.271-1.365c0-0.497,0.09-0.957,0.271-1.377c0.18-0.421,0.429-0.794,0.747-1.121
			c0.317-0.325,0.691-0.579,1.12-0.759C103.365,131.56,103.828,131.47,104.326,131.47"/>
		<path fill="#FFFFFF" d="M122.943,142.311h3.991l0.18,4.171c0.756-0.892,1.485-1.635,2.188-2.228
			c0.704-0.592,1.395-1.068,2.073-1.429c0.678-0.36,1.369-0.613,2.073-0.76c0.704-0.146,1.433-0.219,2.188-0.219
			c2.661,0,4.675,0.786,6.038,2.356c1.365,1.57,2.048,3.936,2.048,7.095v16.865h-4.479v-16.506c0-2.024-0.379-3.522-1.134-4.493
			c-0.757-0.97-1.88-1.455-3.374-1.455c-0.549,0-1.086,0.082-1.609,0.245s-1.068,0.446-1.635,0.85
			c-0.566,0.403-1.18,0.948-1.84,1.635c-0.662,0.688-1.404,1.545-2.228,2.575v17.149h-4.48V142.311z"/>
		<polygon fill="#FFFFFF" points="175.19,168.163 169.036,168.163 156.985,154.31 156.985,168.163 152.505,168.163 152.505,131.779 
			156.985,131.779 156.985,154.129 168.599,142.311 174.521,142.311 162.393,154.232 		"/>
		<path fill="#FFFFFF" d="M56.045,210.219c-1.167,0.446-2.365,0.776-3.592,0.991c-1.228,0.214-2.494,0.322-3.798,0.322
			c-4.086,0-7.232-1.107-9.438-3.322c-2.206-2.215-3.309-5.45-3.309-9.708c0-2.042,0.317-3.896,0.953-5.562
			c0.635-1.665,1.528-3.09,2.678-4.274s2.523-2.099,4.12-2.742c1.596-0.644,3.356-0.966,5.279-0.966
			c1.338,0,2.592,0.095,3.759,0.283c1.167,0.189,2.283,0.498,3.348,0.927v4.274c-1.116-0.583-2.253-1.008-3.412-1.274
			c-1.159-0.266-2.356-0.399-3.592-0.399c-1.15,0-2.236,0.22-3.257,0.657s-1.918,1.068-2.69,1.893
			c-0.773,0.824-1.382,1.828-1.829,3.013s-0.669,2.523-0.669,4.017c0,3.125,0.76,5.464,2.279,7.018
			c1.519,1.553,3.626,2.33,6.322,2.33c1.218,0,2.399-0.138,3.541-0.412s2.245-0.687,3.309-1.235V210.219z"/>
		<path fill="#FFFFFF" d="M87.46,198.039c0,2.009-0.283,3.85-0.85,5.523c-0.566,1.674-1.382,3.107-2.446,4.3
			c-1.064,1.193-2.361,2.121-3.889,2.781c-1.528,0.661-3.262,0.991-5.201,0.991c-1.854,0-3.515-0.287-4.983-0.862
			c-1.467-0.575-2.713-1.421-3.734-2.536c-1.021-1.116-1.802-2.498-2.343-4.146c-0.541-1.648-0.811-3.545-0.811-5.691
			c0-2.009,0.283-3.841,0.85-5.497c0.566-1.657,1.382-3.082,2.446-4.275c1.064-1.192,2.36-2.119,3.888-2.78s3.261-0.992,5.201-0.992
			c1.854,0,3.515,0.288,4.983,0.863s2.712,1.416,3.733,2.523s1.803,2.484,2.344,4.133C87.189,194.021,87.46,195.91,87.46,198.039
			 M82.876,198.245c0-1.597-0.176-2.991-0.528-4.185c-0.353-1.193-0.854-2.188-1.506-2.987c-0.653-0.798-1.446-1.398-2.382-1.803
			c-0.936-0.402-1.979-0.604-3.129-0.604c-1.339,0-2.485,0.262-3.438,0.785c-0.953,0.523-1.734,1.224-2.343,2.099
			c-0.61,0.876-1.057,1.893-1.34,3.052c-0.283,1.158-0.425,2.373-0.425,3.644c0,1.597,0.176,2.996,0.528,4.197
			c0.352,1.201,0.854,2.201,1.506,3c0.652,0.798,1.442,1.399,2.369,1.802c0.927,0.403,1.974,0.605,3.142,0.605
			c1.339,0,2.485-0.262,3.438-0.785c0.952-0.523,1.733-1.223,2.343-2.099c0.609-0.875,1.056-1.893,1.338-3.052
			C82.735,200.756,82.876,199.532,82.876,198.245"/>
		<path fill="#FFFFFF" d="M92.636,198.785c0-2.196,0.3-4.149,0.901-5.857c0.601-1.708,1.455-3.15,2.562-4.326
			c1.108-1.176,2.438-2.068,3.992-2.678c1.554-0.609,3.283-0.915,5.188-0.915c0.824,0,1.635,0.052,2.434,0.155
			c0.798,0.103,1.583,0.267,2.356,0.489v-10.867h4.506v36.386h-4.017l-0.154-4.894c-1.254,1.82-2.61,3.168-4.068,4.043
			c-1.459,0.876-3.039,1.313-4.738,1.313c-1.477,0-2.777-0.309-3.901-0.927s-2.06-1.489-2.807-2.613
			c-0.747-1.125-1.309-2.477-1.687-4.057C92.825,202.459,92.636,200.708,92.636,198.785 M97.219,198.502
			c0,3.125,0.458,5.455,1.377,6.991c0.918,1.537,2.219,2.306,3.901,2.306c1.133,0,2.33-0.507,3.592-1.521
			c1.262-1.012,2.587-2.514,3.978-4.506v-11.999c-0.738-0.344-1.554-0.605-2.446-0.785c-0.893-0.181-1.777-0.271-2.652-0.271
			c-2.438,0-4.339,0.79-5.703,2.368C97.901,192.666,97.219,195.138,97.219,198.502"/>
		<path fill="#FFFFFF" d="M144.779,196.881c0,0.635-0.009,1.167-0.025,1.596c-0.018,0.43-0.043,0.833-0.077,1.21h-18.154
			c0,2.645,0.738,4.674,2.215,6.091c1.476,1.416,3.605,2.124,6.386,2.124c0.755,0,1.509-0.03,2.266-0.091
			c0.755-0.06,1.484-0.141,2.188-0.244c0.703-0.103,1.377-0.219,2.021-0.348c0.644-0.129,1.239-0.271,1.789-0.425v3.682
			c-1.219,0.345-2.596,0.623-4.133,0.837c-1.537,0.215-3.129,0.322-4.777,0.322c-2.214,0-4.12-0.301-5.716-0.901
			s-2.906-1.472-3.927-2.613c-1.021-1.143-1.776-2.541-2.265-4.197s-0.734-3.532-0.734-5.626c0-1.82,0.261-3.541,0.786-5.163
			c0.523-1.623,1.287-3.048,2.292-4.274c1.004-1.228,2.235-2.202,3.695-2.923c1.459-0.721,3.116-1.082,4.97-1.082
			c1.803,0,3.399,0.284,4.789,0.85c1.391,0.567,2.563,1.369,3.516,2.408s1.674,2.301,2.162,3.785
			C144.535,193.383,144.779,195.043,144.779,196.881 M140.119,196.236c0.051-1.15-0.061-2.201-0.335-3.154
			c-0.275-0.952-0.7-1.772-1.274-2.459c-0.576-0.687-1.293-1.224-2.15-1.609c-0.859-0.387-1.854-0.579-2.987-0.579
			c-0.978,0-1.871,0.188-2.678,0.565c-0.807,0.378-1.502,0.911-2.085,1.598c-0.584,0.687-1.056,1.511-1.417,2.472
			c-0.36,0.962-0.584,2.017-0.669,3.167H140.119z"/>
		<rect x="146.721" y="214.841" fill="#FFFFFF" width="28.296" height="4.607"/>
	</g>
</g>
</svg>
